<svg xmlns="http://www.w3.org/2000/svg" viewBox="0 0 1600 900" role="img" aria-label="حافلة نقل حديثة"><defs><linearGradient id="s" x1="0" x2="1" y1="0" y2="1"><stop stop-color="#d9e7f1"/><stop offset="1" stop-color="#8ea9bb"/></linearGradient></defs><rect width="1600" height="900" fill="url(#s)"/><circle cx="210" cy="150" r="92" fill="#fff" opacity=".4"/><path d="M0 690C370 560 730 710 1600 530V900H0Z" fill="#30343a"/><path d="M0 770C420 690 900 800 1600 650" fill="none" stroke="#d4af37" stroke-width="13" stroke-dasharray="70 40"/><g transform="translate(340 330)"><rect width="920" height="300" rx="55" fill="#f7f7f4"/><path d="M60 55h675c55 0 98 35 115 92l25 76H60Z" fill="#172c3e"/><g fill="#d7e8ef"><rect x="95" y="82" width="130" height="100" rx="10"/><rect x="245" y="82" width="130" height="100" rx="10"/><rect x="395" y="82" width="130" height="100" rx="10"/><rect x="545" y="82" width="130" height="100" rx="10"/></g><path d="M55 230h820" stroke="#d4af37" stroke-width="11"/><circle cx="210" cy="302" r="63" fill="#15191e"/><circle cx="210" cy="302" r="28" fill="#c9d0d6"/><circle cx="705" cy="302" r="63" fill="#15191e"/><circle cx="705" cy="302" r="28" fill="#c9d0d6"/></g></svg>
